# xmcd
#
# Track frame offsets:
#	150
#	9659
#	20403
#	30148
#	40710
#	52844
#	70593
#	83104
#	92046
#	113343
#	121462
#	129257
#	139070
#	152422
#	165698
#	178323
#	189536
#	199389
#	208946
#	221142
#
# Disc length: 3102 seconds
#
# Revision: 0
# Processed by: cddbd v1.5.2PL0 Copyright (c) Steve Scherf et al.
# Submitted via: SynApp - FreeCDDB Version: 2.4
#
DISCID=090c1c14
DTITLE=Various Artist - Star-Club Hits CD1
DYEAR=2007
DGENRE=Rock and Roll
TTITLE0=Bill Haley and His Comets - Rock around the Clock
TTITLE1=The Searchers - Sweet for my Sweet
TTITLE2=The Beatles - Ain´t she sweet
TTITLE3=Manfred Mann - Do wah Diddy
TTITLE4=King Size Taylor - Domino Twist
TTITLE5=The Beatles featuring Tony Sheridan - Skinny Minny
TTITLE6=Cilla Black - Anyone woh had a Heart
TTITLE7=Jerry Lee Lewis - Long Tall Sally
TTITLE8=Joe Cocker - With a little help from my Friends
TTITLE9=Little Richard - Good Golly Miss Molly
TTITLE10=The Swinging Blue Jeans - Hippy Hippy Shake
TTITLE11=The Lords - Shakin´all over
TTITLE12=Mike Berry - Tribute to Buddy Holly
TTITLE13=Casey Jones and the Governors - Jack the Ripper
TTITLE14=Lee Curtis and The Allstars - Ecstasy
TTITLE15=Paul and Paula - Hey Paula
TTITLE16=Fats Domino - My Blue Heaven
TTITLE17=Sam the Sham and The Pharoahs - Ju Ju Hand
TTITLE18=Gene Vincent - Be- Bop a Lula
TTITLE19=Manfred Mann - My Name is Jack
EXTD=
EXTT0=
EXTT1=
EXTT2=
EXTT3=
EXTT4=
EXTT5=
EXTT6=
EXTT7=
EXTT8=
EXTT9=
EXTT10=
EXTT11=
EXTT12=
EXTT13=
EXTT14=
EXTT15=
EXTT16=
EXTT17=
EXTT18=
EXTT19=
PLAYORDER=
